<?xml version="1.0" encoding="UTF-8" standalone="no"?>
<svg
   xmlns:dc="http://purl.org/dc/elements/1.1/"
   xmlns:cc="http://creativecommons.org/ns#"
   xmlns:rdf="http://www.w3.org/1999/02/22-rdf-syntax-ns#"
   xmlns:svg="http://www.w3.org/2000/svg"
   xmlns="http://www.w3.org/2000/svg"
   xmlns:sodipodi="http://sodipodi.sourceforge.net/DTD/sodipodi-0.dtd"
   xmlns:inkscape="http://www.inkscape.org/namespaces/inkscape"
   width="286"
   height="180"
   viewBox="0 0 286 180"
   version="1.1"
   id="svg16"
   sodipodi:docname="bitfinex.svg"
   inkscape:version="0.92.4 (f8dce91, 2019-08-02)">
  <metadata
     id="metadata20">
    <rdf:RDF>
      <cc:Work
         rdf:about="">
        <dc:format>image/svg+xml</dc:format>
        <dc:type
           rdf:resource="http://purl.org/dc/dcmitype/StillImage" />
        <dc:title>logo</dc:title>
      </cc:Work>
    </rdf:RDF>
  </metadata>
  <sodipodi:namedview
     pagecolor="#ffffff"
     bordercolor="#666666"
     borderopacity="1"
     objecttolerance="10"
     gridtolerance="10"
     guidetolerance="10"
     inkscape:pageopacity="0"
     inkscape:pageshadow="2"
     inkscape:window-width="1850"
     inkscape:window-height="1016"
     id="namedview18"
     showgrid="false"
     inkscape:zoom="1"
     inkscape:cx="242.40629"
     inkscape:cy="80.840404"
     inkscape:window-x="70"
     inkscape:window-y="27"
     inkscape:window-maximized="1"
     inkscape:current-layer="svg16" />
  <!-- Generator: Sketch 3.6.1 (26313) - http://www.bohemiancoding.com/sketch -->
  <title
     id="title2">logo</title>
  <desc
     id="desc4">Created with Sketch.</desc>
  <defs
     id="defs6" />
  <g
     id="Page-1"
     transform="matrix(0.30653995,0,0,0.30653995,7.7021638,72.713193)"
     style="fill:none;fill-rule:evenodd;stroke:none;stroke-width:1">
    <g
       id="g13"
       transform="translate(-129.39581,-936)">
      <g
         id="logo-w-bg-on-dark"
         transform="translate(0,849)">
        <g
           id="logo"
           transform="translate(130,87)">
          <path
             d="m 791.93594,88.413524 c 4.79539,5.078304 31.13483,29.418006 72.47772,1.169879 C 894.3088,66.302031 893.56194,15.826969 890.69003,0.58443941 889.68955,2.8027376 854.96543,78.843786 791.93594,88.413524 Z M 890.68601,0.57153794 C 890.31983,0.42027103 851.85834,-4.8234444 813.83602,19.66587 790.22542,34.872917 787.10439,57.130084 788.18165,71.960977 843.45475,65.77562 889.43219,2.3153692 890.68601,0.57153794 Z"
             id="Path-1-Copy-9"
             inkscape:connector-curvature="0"
             style="fill:#98e35d" />
          <path
             d="M 890.68601,0.57153794 C 890.31983,0.42027103 851.85834,-4.8234444 813.83602,19.66587 790.22542,34.872917 787.10439,57.130084 788.18165,71.960977 843.45475,65.77562 889.43219,2.3153692 890.68601,0.57153794 Z"
             id="Path-1-Copy-8"
             inkscape:connector-curvature="0"
             style="fill:#16b157" />
          <path
             d="M 61.659,85.445 H 18.603 V 62.513 h 43.056 c 10.764,0 16.263,5.148 16.263,11.817 0,6.435 -5.382,11.115 -16.263,11.115 z M 60.255,50.228 H 18.603 V 30.923 h 41.652 c 11.349,0 15.795,3.978 15.795,9.477 0,5.031 -5.148,9.828 -15.795,9.828 z m 10.998,5.85 C 89.388,55.493 95.94,46.484 95.94,36.656 95.94,25.892 87.399,17 66.573,17 H 0 v 82.134 h 68.562 c 17.082,0 29.835,-7.137 29.835,-22.464 0,-10.881 -7.137,-20.124 -27.144,-20.592 z M 120.369,17 v 82.134 h 18.603 V 17 Z m 94.044,15.561 h 40.95 V 17 H 154.86 v 15.561 h 40.95 v 66.573 h 18.603 z M 271.251,17 v 82.134 h 18.603 V 67.076 h 43.641 V 53.621 H 289.854 V 31.157 h 70.902 V 17 Z m 104.574,0 v 82.134 h 18.603 V 17 Z m 62.22,20.007 61.659,62.127 h 21.06 V 17 H 502.395 V 76.202 L 443.193,17 h -23.634 v 82.134 h 18.486 z M 545.895,17 v 82.134 h 91.026 V 85.328 H 564.498 V 62.747 h 43.407 V 49.994 H 564.498 V 31.157 h 72.423 V 17 Z m 215.607,0 h -24.57 L 705.576,45.899 674.454,17 h -24.921 l 43.758,40.482 -45.396,41.652 h 24.57 l 32.877,-30.303 32.76,30.303 H 763.14 L 717.627,57.365 Z"
             id="BITFINEX-Copy-3"
             inkscape:connector-curvature="0"
             style="fill:#dddddd" />
        </g>
      </g>
    </g>
  </g>
</svg>
