<?xml version="1.0" encoding="UTF-8" standalone="no"?>
<svg
   xmlns:dc="http://purl.org/dc/elements/1.1/"
   xmlns:cc="http://creativecommons.org/ns#"
   xmlns:rdf="http://www.w3.org/1999/02/22-rdf-syntax-ns#"
   xmlns:svg="http://www.w3.org/2000/svg"
   xmlns="http://www.w3.org/2000/svg"
   xmlns:sodipodi="http://sodipodi.sourceforge.net/DTD/sodipodi-0.dtd"
   xmlns:inkscape="http://www.inkscape.org/namespaces/inkscape"
   version="1.1"
   width="286"
   height="180"
   viewBox="0 0 286 180"
   id="svg30"
   sodipodi:docname="bitflyer.svg"
   inkscape:version="0.92.4 (f8dce91, 2019-08-02)">
  <metadata
     id="metadata36">
    <rdf:RDF>
      <cc:Work
         rdf:about="">
        <dc:format>image/svg+xml</dc:format>
        <dc:type
           rdf:resource="http://purl.org/dc/dcmitype/StillImage" />
        <dc:title></dc:title>
      </cc:Work>
    </rdf:RDF>
  </metadata>
  <defs
     id="defs34" />
  <sodipodi:namedview
     pagecolor="#ffffff"
     bordercolor="#666666"
     borderopacity="1"
     objecttolerance="10"
     gridtolerance="10"
     guidetolerance="10"
     inkscape:pageopacity="0"
     inkscape:pageshadow="2"
     inkscape:window-width="1850"
     inkscape:window-height="1016"
     id="namedview32"
     showgrid="false"
     inkscape:zoom="1"
     inkscape:cx="66.181404"
     inkscape:cy="14.296488"
     inkscape:window-x="70"
     inkscape:window-y="27"
     inkscape:window-maximized="1"
     inkscape:current-layer="svg30" />
  <path
     d="m 91.432844,62.080108 h 5.512806 v 16.540516 c 2.46751,-1.741653 4.93295,-2.611452 7.69039,-2.611452 3.62722,0 6.38469,1.305714 8.70619,4.063179 2.3215,2.757442 3.33729,6.094733 3.33729,10.301824 0,4.499094 -1.30571,8.126334 -4.06315,10.737765 -2.75745,2.61145 -6.23867,4.06318 -10.73777,4.06318 -1.74165,0 -3.77325,-0.14592 -5.65882,-0.57988 -2.031573,-0.43591 -3.627236,-0.86977 -4.789014,-1.45172 V 62.080108 Z M 97.09166,83.845581 V 99.08036 c 1.88557,0.57985 3.77323,0.869775 5.80481,0.869775 2.46752,0 4.49909,-0.869775 5.94874,-2.611428 1.59564,-1.741652 2.32151,-4.063155 2.32151,-6.674607 0,-2.757441 -0.72587,-5.078944 -2.17549,-6.820596 -1.44965,-1.741676 -3.33732,-2.611452 -5.65882,-2.611452 -2.03158,-0.145919 -4.20709,0.869776 -6.23867,2.611452 z"
     id="path2"
     inkscape:connector-curvature="0"
     style="fill:#aaaaaa;stroke-width:2.08581352" />
  <path
     d="m 125.82164,64.837573 c 0.8698,0 1.74166,0.289925 2.32153,1.015789 0.57985,0.725863 1.01579,1.451727 1.01579,2.321503 0,0.869775 -0.28995,1.595639 -1.01579,2.321502 -0.72586,0.725864 -1.45173,1.015789 -2.32153,1.015789 -0.86977,0 -1.59564,-0.289925 -2.3215,-1.015789 -0.72586,-0.725863 -1.01579,-1.451727 -1.01579,-2.321502 0,-0.869776 0.28993,-1.59564 1.01579,-2.321503 0.72586,-0.725864 1.45173,-1.015789 2.3215,-1.015789 z m -2.75744,11.753551 h 5.51281 v 28.004116 h -5.51281 z"
     id="path4"
     inkscape:connector-curvature="0"
     style="fill:#aaaaaa;stroke-width:2.08581352" />
  <path
     d="m 132.64016,81.08814 10.44786,-10.301847 v 5.804831 h 8.8501 v 4.932955 h -8.8501 v 13.785128 c 0,3.191302 1.30572,4.789023 4.06316,4.789023 2.03158,0 4.06315,-0.725844 6.23867,-2.031581 v 5.222881 c -2.17552,1.1618 -4.4991,1.74165 -6.96453,1.74165 -2.46544,0 -4.64303,-0.72586 -6.38469,-2.17549 -0.57985,-0.43594 -1.01579,-1.01579 -1.30571,-1.45173 -0.28993,-0.57987 -0.57985,-1.30573 -0.86978,-2.175509 -0.28992,-0.869776 -0.28992,-2.611428 -0.28992,-5.22288 V 81.526156 h -4.93296 v -0.435938 z"
     id="path6"
     inkscape:connector-curvature="0"
     style="fill:#aaaaaa;stroke-width:2.08581352" />
  <path
     d="m 158.17887,62.080108 h 22.63525 v 5.368893 h -16.5405 v 11.897487 h 16.5405 v 5.368869 h -16.5405 v 19.877803 h -6.09475 V 62.07803 Z"
     id="path8"
     inkscape:connector-curvature="0"
     style="fill:#aaaaaa;stroke-width:2.08581352" />
  <path
     d="m 186.76286,62.080108 h 5.5128 v 42.515132 h -5.5128 z"
     id="path10"
     inkscape:connector-curvature="0"
     style="fill:#aaaaaa;stroke-width:2.08581352" />
  <path
     d="m 217.52444,76.591124 h 6.23867 L 203.8853,118.96025 h -6.23867 l 9.57599,-20.313727 -10.8817,-22.055399 h 6.38468 l 7.54438,15.81673 z"
     id="path12"
     inkscape:connector-curvature="0"
     style="fill:#aaaaaa;stroke-width:2.08581352" />
  <path
     d="m 251.4773,91.100039 h -19.73387 c 0.14592,2.757441 1.01579,4.789019 2.75744,6.384682 1.59567,1.595639 3.77323,2.321502 6.38468,2.321502 3.62722,0 6.96454,-1.161802 10.15792,-3.337291 v 5.368868 c -1.74166,1.1618 -3.3373,1.88559 -5.07897,2.46752 -1.74165,0.43594 -3.62722,0.72586 -5.94872,0.72586 -3.04739,0 -5.51281,-0.57985 -7.54441,-1.88556 -1.88556,-1.30572 -3.4833,-3.04737 -4.643,-5.222883 -1.15973,-2.175513 -1.74166,-4.643029 -1.74166,-7.544383 0,-4.20709 1.16178,-7.690395 3.62722,-10.447837 2.46752,-2.611451 5.51281,-4.063179 9.43205,-4.063179 3.77323,0 6.67461,1.305714 8.85012,3.917166 2.17549,2.611428 3.33729,6.094733 3.33729,10.447837 l 0.14592,0.869776 z m -19.58786,-3.337292 h 14.07506 c -0.14592,-2.175513 -0.86978,-3.917166 -2.03158,-5.078968 -1.1618,-1.161802 -2.75744,-1.741652 -4.78902,-1.741652 -2.03158,0 -3.62724,0.57985 -4.93295,1.741652 -1.01579,1.159725 -1.88557,2.901377 -2.32151,5.078968 z"
     id="path14"
     inkscape:connector-curvature="0"
     style="fill:#aaaaaa;stroke-width:2.08581352" />
  <path
     d="m 263.37479,76.591124 v 6.384682 l 0.28993,-0.435939 c 2.75744,-4.353104 5.36889,-6.528593 7.98032,-6.528593 2.0316,0 4.20709,1.015789 6.52859,3.191278 l -2.90135,4.932955 c -1.88559,-1.885565 -3.77323,-2.757442 -5.3689,-2.757442 -1.74165,0 -3.33729,0.869776 -4.643,2.611428 -1.30574,1.741653 -2.0316,3.773254 -2.0316,6.094757 v 14.65493 h -5.51281 V 76.589023 h 5.65882 z"
     id="path16"
     inkscape:connector-curvature="0"
     style="fill:#aaaaaa;stroke-width:2.08581352" />
  <path
     d="M 7.564365,55.551514 H 27.878104 V 75.86526 H 7.564365 Z"
     id="path18"
     inkscape:connector-curvature="0"
     style="fill:#aaaaaa;stroke-width:2.08581352" />
  <path
     d="M 30.925478,55.551514 H 51.239212 V 75.86526 H 30.925478 Z"
     id="path20"
     inkscape:connector-curvature="0"
     style="fill:#aaaaaa;stroke-width:2.08581352" />
  <path
     d="M 7.564365,78.912627 H 27.878104 V 99.226373 H 7.564365 Z"
     id="path22"
     inkscape:connector-curvature="0"
     style="fill:#aaaaaa;stroke-width:2.08581352" />
  <path
     d="m 7.564365,102.27374 h 20.313739 v 20.31375 H 7.564365 Z"
     id="path24"
     inkscape:connector-curvature="0"
     style="fill:#aaaaaa;stroke-width:2.08581352" />
  <path
     d="M 54.286578,55.551514 H 74.600325 V 75.86526 H 54.286578 Z"
     id="path26"
     inkscape:connector-curvature="0"
     style="fill:#aaaaaa;stroke-width:2.08581352" />
  <path
     d="m 51.0953,89.070539 c 0,5.529498 -4.482424,10.011899 -10.011899,10.011899 -5.529498,0 -10.011917,-4.482401 -10.011917,-10.011899 0,-5.529498 4.482419,-10.011899 10.011917,-10.011899 5.529475,0 10.011899,4.482401 10.011899,10.011899 z"
     id="path28"
     inkscape:connector-curvature="0"
     style="fill:#ee7f4a;stroke-width:2.08581352" />
</svg>
