<?xml version="1.0" encoding="UTF-8" standalone="no"?>
<svg
   xmlns:dc="http://purl.org/dc/elements/1.1/"
   xmlns:cc="http://creativecommons.org/ns#"
   xmlns:rdf="http://www.w3.org/1999/02/22-rdf-syntax-ns#"
   xmlns:svg="http://www.w3.org/2000/svg"
   xmlns="http://www.w3.org/2000/svg"
   xmlns:sodipodi="http://sodipodi.sourceforge.net/DTD/sodipodi-0.dtd"
   xmlns:inkscape="http://www.inkscape.org/namespaces/inkscape"
   version="1.1"
   viewBox="0 0 286 180"
   id="svg12"
   sodipodi:docname="bitmex.svg"
   inkscape:version="0.92.4 (f8dce91, 2019-08-02)"
   width="286"
   height="180">
  <metadata
     id="metadata18">
    <rdf:RDF>
      <cc:Work
         rdf:about="">
        <dc:format>image/svg+xml</dc:format>
        <dc:type
           rdf:resource="http://purl.org/dc/dcmitype/StillImage" />
        <dc:title></dc:title>
      </cc:Work>
    </rdf:RDF>
  </metadata>
  <defs
     id="defs16" />
  <sodipodi:namedview
     pagecolor="#ffffff"
     bordercolor="#666666"
     borderopacity="1"
     objecttolerance="10"
     gridtolerance="10"
     guidetolerance="10"
     inkscape:pageopacity="0"
     inkscape:pageshadow="2"
     inkscape:window-width="1850"
     inkscape:window-height="1016"
     id="namedview14"
     showgrid="false"
     inkscape:zoom="1.6502146"
     inkscape:cx="233"
     inkscape:cy="37.049999"
     inkscape:window-x="70"
     inkscape:window-y="27"
     inkscape:window-maximized="1"
     inkscape:current-layer="svg12" />
  <g
     id="g10"
     transform="matrix(0.59418929,0,0,0.59418929,3.6566234,64.580516)">
    <g
       id="g6">
      <polygon
         points="54.3,0.7 36.2,0.7 18,0.7 0,73.2 18.1,73.2 29.4,27.8 47.5,27.8 "
         id="polygon2"
         style="fill:#ff0201" />
      <polygon
         points="36.2,73.2 54.3,73.2 72.5,73.2 83.8,27.8 90.5,0.7 72.4,0.7 65.6,27.8 61.1,46 43,46 "
         id="polygon4"
         style="fill:#125bff" />
    </g>
    <path
       fill="var(--white)"
       d="m 188.4,5 c 0,1.5 -0.5,2.6 -1.6,3.6 -1,0.9 -2.2,1.4 -3.4,1.4 -1.2,0 -2.4,-0.5 -3.4,-1.4 -1,-0.9 -1.6,-2.1 -1.6,-3.6 0,-1.5 0.5,-2.6 1.6,-3.6 1,-0.9 2.2,-1.4 3.4,-1.4 1.2,0 2.4,0.5 3.4,1.4 1.1,1 1.6,2.2 1.6,3.6 z M 108.7,0.6 h 30 c 8.3,0 14.8,2.4 19,6.4 3,3.1 4.7,6.9 4.7,11.6 v 0.2 c 0,9.4 -5.8,14.3 -11.5,16.8 8.6,2.6 15.5,7.6 15.5,17.5 v 0.2 c 0,12.4 -10.5,19.8 -26.3,19.8 H 108.8 Z M 137.3,33 C 147.1,33 154,28.5 154,20 V 19.8 C 154,12.6 148.3,8 137.9,8 h -21.1 v 25 z m 2.9,32.8 c 11,0 17.8,-4.9 17.8,-13 v -0.2 c 0,-7.9 -6.6,-12.4 -19.3,-12.4 h -22 v 25.6 z m 39.2,-46.2 h 8 v 53.6 h -8 z m 29.2,36.6 V 26.7 h -12.1 v -7 h 12.1 v -19 h 8 v 19 h 22 v 7 h -22 v 28.5 c 0,7.2 3.4,11.8 9.9,11.7 4.5,-0.1 8.1,-0.5 11.4,-1.9 v 6.8 c -2.8,1.5 -7.9,2.4 -13.3,2.3 -9.7,-0.2 -16,-7 -16,-17.9 z M 250.1,0.6 h 17.2 l 19.1,30.7 19.1,-30.7 h 17.2 V 73.1 H 306.8 V 25.8 l -20.4,31 H 286 L 265.7,26.1 v 47 h -15.6 z m 86.7,0 h 54.7 V 14.8 H 352.6 V 29.5 H 385 v 14.2 h -32.3 v 15.2 h 39.4 V 73.1 H 336.9 V 0.6 Z M 421.9,36.3 397.7,0.7 h 18.7 L 431.6,24.2 446.9,0.7 H 465 L 440.8,36.1 466,73.2 H 447.3 L 431,48.3 414.6,73.2 h -18.1 z"
       id="path8"
       inkscape:connector-curvature="0" />
  </g>
</svg>
